<?xml version="1.0" encoding="UTF-8" standalone="no"?>
<!DOCTYPE svg PUBLIC "-//W3C//DTD SVG 1.1//EN" "http://www.w3.org/Graphics/SVG/1.1/DTD/svg11.dtd">
<svg width="100%" height="100%" viewBox="0 0 2363 2363" version="1.1" xmlns="http://www.w3.org/2000/svg" xmlns:xlink="http://www.w3.org/1999/xlink" xml:space="preserve" xmlns:serif="http://www.serif.com/" style="fill-rule:evenodd;clip-rule:evenodd;stroke-linejoin:round;stroke-miterlimit:2;">
    <g transform="matrix(21.262,0,0,21.262,-14117,-17091.1)">
        <g transform="matrix(50,0,0,50,664.557,878.007)">
            <path d="M0.26,-0.557C0.101,-0.557 0.017,-0.477 0.017,-0.378C0.017,-0.29 0.074,-0.23 0.172,-0.2C0.261,-0.172 0.269,-0.171 0.269,-0.151C0.269,-0.136 0.253,-0.129 0.225,-0.129C0.179,-0.129 0.129,-0.153 0.093,-0.182L-0.012,-0.067C0.045,-0.012 0.136,0.022 0.231,0.022C0.387,0.022 0.495,-0.056 0.495,-0.168C0.495,-0.266 0.439,-0.311 0.34,-0.342C0.238,-0.374 0.236,-0.38 0.236,-0.392C0.236,-0.399 0.242,-0.405 0.269,-0.405C0.311,-0.405 0.358,-0.39 0.394,-0.368L0.472,-0.487C0.423,-0.529 0.341,-0.557 0.26,-0.557Z" style="fill-rule:nonzero;"/>
        </g>
        <g transform="matrix(50,0,0,50,688.707,878.007)">
            <rect x="0.029" y="-0.396" width="0.353" height="0.166" style="fill-rule:nonzero;"/>
        </g>
        <g transform="matrix(50,0,0,50,709.307,878.007)">
            <rect x="0.031" y="-0.698" width="0.231" height="0.698" style="fill-rule:nonzero;"/>
        </g>
        <g transform="matrix(50,0,0,50,723.957,878.007)">
            <rect x="0.029" y="-0.396" width="0.353" height="0.166" style="fill-rule:nonzero;"/>
        </g>
        <g transform="matrix(50,0,0,50,744.557,878.007)">
            <path d="M0.253,-0.767L0.031,-0.745L0.031,-0L0.253,-0L0.253,-0.767ZM0.605,-0.536L0.387,-0.536L0.257,-0.293L0.366,-0L0.61,-0L0.477,-0.302L0.605,-0.536Z" style="fill-rule:nonzero;"/>
        </g>
    </g>
</svg>
